<?xml version="1.0" standalone="no"?>
<!DOCTYPE svg PUBLIC "-//W3C//DTD SVG 20010904//EN"
 "http://www.w3.org/TR/2001/REC-SVG-20010904/DTD/svg10.dtd">
<svg version="1.0" xmlns="http://www.w3.org/2000/svg"
 width="351.000000pt" height="351.000000pt" viewBox="0 0 351.000000 351.000000"
 preserveAspectRatio="xMidYMid meet">
<metadata>
Created by potrace 1.14, written by Peter Selinger 2001-2017
</metadata>
<g transform="translate(0.000000,351.000000) scale(0.100000,-0.100000)"
fill="#000000" stroke="none">
<path d="M2305 3051 c-39 -5 -50 -10 -49 -23 1 -14 -6 -18 -37 -18 -35 0 -39
-3 -39 -25 0 -20 -5 -25 -25 -25 -20 0 -25 -5 -25 -25 0 -22 -4 -25 -35 -25
-28 0 -35 -4 -35 -20 0 -13 -7 -20 -20 -20 -13 0 -20 -7 -20 -20 0 -17 -7 -20
-40 -20 -36 0 -40 -2 -40 -25 l0 -25 -190 0 -190 0 0 25 c0 23 -4 25 -45 25
-38 0 -45 3 -45 20 0 15 -7 20 -25 20 -21 0 -23 3 -16 23 8 21 7 22 -25 19
-31 -4 -34 -2 -34 22 0 21 -5 26 -25 26 -20 0 -25 5 -25 25 0 25 -1 25 -88 25
l-87 0 3 -364 4 -364 -28 -4 -29 -3 -3 -182 -2 -183 30 0 c29 0 30 -1 30 -50
0 -47 2 -50 25 -50 24 0 27 -3 29 -32 1 -7 19 -15 41 -18 34 -4 40 -9 39 -27
-1 -21 4 -23 44 -23 42 0 44 -1 40 -25 -5 -23 -2 -25 28 -25 24 0 34 -5 34
-15 0 -9 -9 -15 -25 -15 -20 0 -25 -5 -25 -25 0 -21 -5 -25 -30 -25 -23 0 -30
-4 -30 -20 0 -16 -7 -20 -30 -20 -27 0 -30 -3 -30 -30 0 -25 -4 -30 -25 -30
-14 0 -26 -4 -26 -10 -1 -5 -2 -16 -3 -22 -1 -8 -22 -15 -56 -18 -53 -5 -55
-6 -52 -32 2 -25 0 -28 -28 -28 l-32 0 6 -45 c7 -45 6 -45 -24 -45 -26 0 -30
-4 -30 -26 l0 -25 -225 3 -225 3 0 -57 c0 -51 2 -58 20 -58 17 0 20 -7 20 -40
0 -36 3 -40 25 -40 24 0 25 -3 25 -55 0 -52 1 -55 26 -55 24 0 25 -2 23 -52
-3 -48 -1 -53 19 -56 16 -2 22 -10 22 -28 0 -19 5 -24 25 -24 23 0 25 -3 25
-50 0 -47 2 -50 25 -50 24 0 25 -3 25 -55 0 -54 0 -55 30 -55 25 0 30 -4 30
-25 0 -20 5 -25 25 -25 20 0 25 -5 25 -25 l0 -25 275 0 c213 0 275 -3 277 -12
0 -7 1 -20 2 -28 1 -8 4 -14 9 -12 4 1 97 2 206 2 199 0 200 0 203 22 3 21 9
23 68 24 58 1 65 3 68 23 3 16 10 21 36 21 18 0 54 3 80 6 40 6 46 10 46 30 0
23 2 24 85 24 l85 0 0 30 c0 30 1 30 55 30 52 0 55 1 55 25 0 25 1 25 80 25
78 0 80 1 80 24 0 19 6 25 28 28 19 2 28 9 30 25 3 20 9 23 53 23 46 0 49 2
49 25 0 17 5 25 18 25 10 0 22 4 27 9 6 5 21 11 35 13 l25 3 3 213 2 212 -30
0 c-27 0 -30 3 -30 30 0 25 -4 30 -25 30 -21 0 -25 5 -25 30 0 20 -5 30 -15
30 -8 0 -20 9 -27 20 -8 12 -24 20 -40 20 -24 0 -28 4 -28 30 0 27 -3 30 -30
30 -25 0 -30 4 -30 25 0 24 -2 25 -74 25 -74 0 -75 0 -78 28 -2 22 -8 27 -30
27 -26 -1 -28 2 -28 37 0 34 -3 38 -25 38 -18 0 -25 5 -25 20 0 16 -7 20 -30
20 -25 0 -30 4 -30 25 0 21 5 25 30 25 25 0 30 4 30 25 0 20 5 25 25 25 20 0
25 5 25 25 0 21 5 25 30 25 25 0 30 4 30 25 0 20 5 25 25 25 l25 0 0 185 0
185 -25 0 -25 0 0 275 0 275 -30 0 -30 0 0 90 c0 89 0 90 -25 90 -20 0 -25 5
-25 25 0 14 -3 24 -7 23 -5 0 -30 -4 -58 -7z m-85 -121 c0 -13 -7 -20 -20 -20
-13 0 -20 7 -20 20 0 13 7 20 20 20 13 0 20 -7 20 -20z m-50 -45 c0 -8 -9 -15
-20 -15 -20 0 -26 11 -13 23 12 13 33 7 33 -8z m-36 -40 c4 -10 -1 -15 -14
-15 -11 0 -20 7 -20 15 0 8 6 15 14 15 8 0 16 -7 20 -15z m-44 -45 c0 -13 -7
-20 -20 -20 -25 0 -27 27 -2 33 9 3 18 5 20 6 1 0 2 -8 2 -19z m-40 -50 c0
-14 -7 -20 -23 -20 -16 0 -23 6 -23 20 0 14 7 20 23 20 16 0 23 -6 23 -20z
m-123 -54 c-5 -13 -25 -16 -112 -16 l-105 0 0 -25 c0 -25 0 -25 -96 -25 -93 0
-95 1 -92 23 3 19 9 22 43 22 34 0 41 4 43 22 3 22 7 23 155 25 84 2 156 0
161 -4 5 -4 6 -14 3 -22z m73 4 c0 -11 -4 -20 -10 -20 -5 0 -10 9 -10 20 0 11
5 20 10 20 6 0 10 -9 10 -20z m-480 -100 c0 -17 -7 -20 -45 -20 -38 0 -45 3
-45 20 0 17 7 20 45 20 38 0 45 -3 45 -20z m-100 -55 c0 -20 -5 -25 -25 -25
-20 0 -25 5 -25 25 0 20 5 25 25 25 20 0 25 -5 25 -25z m-53 -55 c-1 -14 -8
-20 -24 -20 -16 0 -23 6 -23 20 0 15 7 20 24 20 19 0 24 -5 23 -20z m-55 -55
c4 -19 1 -25 -13 -25 -14 0 -19 7 -19 25 0 15 6 25 14 25 7 0 16 -11 18 -25z
m-32 -75 c0 -33 -3 -40 -20 -40 -18 0 -20 -7 -20 -79 0 -75 -1 -80 -22 -83
-22 -3 -23 -6 -21 -100 1 -98 1 -98 -23 -98 l-25 0 2 130 c2 129 2 130 26 130
22 0 23 3 23 65 0 58 2 65 20 65 15 0 20 7 20 25 0 18 5 25 20 25 17 0 20 -7
20 -40z m800 -115 c0 -8 -2 -15 -4 -15 -2 0 -6 7 -10 15 -3 8 -1 15 4 15 6 0
10 -7 10 -15z m-717 -87 c6 -69 29 -97 80 -98 22 0 27 -4 27 -25 0 -23 -3 -25
-50 -25 -47 0 -50 2 -50 25 0 20 -5 25 -25 25 -18 0 -25 5 -25 20 0 13 -7 20
-20 20 -18 0 -20 7 -20 58 l0 57 39 3 38 2 6 -62z m722 52 c3 -5 12 -7 20 -3
12 4 15 -6 15 -51 0 -49 -2 -56 -20 -56 -13 0 -20 -7 -20 -20 0 -15 -7 -20
-25 -20 -20 0 -25 -5 -25 -25 0 -24 -2 -25 -70 -25 -68 0 -70 1 -70 25 0 20
-5 25 -25 25 -22 0 -25 4 -25 38 0 21 6 44 13 51 10 11 10 13 0 7 -7 -4 -13
-2 -13 3 0 6 11 11 25 11 22 0 25 -4 25 -39 0 -99 136 -94 144 4 2 22 4 50 5
63 1 23 34 32 46 12z m-425 -275 c0 -18 -5 -25 -19 -25 -13 0 -21 -8 -23 -22
-2 -16 -11 -24 -30 -26 -23 -3 -27 1 -30 25 -2 20 -8 27 -20 25 -13 -2 -18 4
-18 23 0 24 2 25 70 25 68 0 70 -1 70 -25z m-290 -51 l0 -26 -82 5 c-46 3 -84
6 -85 6 0 1 1 10 4 21 5 18 14 20 84 20 78 0 79 0 79 -26z m608 4 c-3 -20 -10
-23 -55 -26 -51 -3 -53 -2 -53 22 0 25 3 26 56 26 52 0 55 -1 52 -22z m390 2
c-2 -12 -6 -21 -10 -20 -5 0 -51 0 -103 0 -88 0 -95 1 -95 20 0 19 7 20 106
20 100 0 105 -1 102 -20z m-918 -100 c0 -18 -7 -20 -55 -20 -48 0 -55 2 -55
20 0 18 7 20 55 20 48 0 55 -2 55 -20z m530 0 c0 -18 -7 -20 -55 -20 -48 0
-55 2 -55 20 0 18 7 20 55 20 48 0 55 -2 55 -20z m180 -50 c0 -18 -7 -20 -60
-20 -53 0 -60 2 -60 20 0 18 7 20 60 20 53 0 60 -2 60 -20z m-700 -180 c0 -11
-7 -20 -15 -20 -8 0 -15 9 -15 20 0 11 7 20 15 20 8 0 15 -9 15 -20z m680 -50
c0 -25 -4 -30 -25 -30 -20 0 -25 -5 -25 -25 0 -18 -5 -25 -20 -25 -18 0 -20
-7 -20 -85 l0 -85 -27 0 -28 0 0 -77 c0 -78 0 -78 -27 -81 -27 -3 -28 -6 -28
-58 0 -51 -2 -54 -24 -54 -23 0 -25 -4 -29 -52 -2 -29 -4 0 -5 65 l-2 117 28
0 c19 0 29 5 29 15 0 10 -10 15 -28 15 -27 0 -28 2 -31 63 -3 54 -5 62 -23 62
-14 0 -21 8 -23 28 -3 26 -5 27 -62 27 -57 0 -59 -1 -62 -27 -2 -20 -9 -28
-23 -28 -18 0 -20 -8 -23 -62 -3 -62 -3 -63 -32 -63 -20 0 -30 -5 -30 -15 0
-10 10 -15 30 -15 l30 0 0 -121 c0 -109 -2 -120 -17 -117 -15 3 -18 13 -16 56
1 38 -2 52 -12 52 -10 0 -15 17 -17 57 -3 53 -5 58 -27 58 l-24 0 -4 213 -5
212 31 0 c26 0 31 -4 31 -25 0 -21 5 -25 29 -25 25 0 30 -4 33 -27 2 -20 9
-28 23 -28 14 0 21 -8 23 -27 3 -27 5 -28 62 -28 57 0 59 1 62 28 3 24 7 27
35 24 28 -3 32 0 38 27 6 27 10 30 53 33 42 3 47 5 44 25 -3 20 2 22 60 26 35
2 66 4 71 5 4 1 7 -11 7 -28z m-718 -30 c3 -49 2 -50 -24 -50 -27 0 -28 2 -28
50 0 46 2 50 24 50 22 0 24 -5 28 -50z m-112 -25 c0 -20 -5 -25 -25 -25 -20 0
-25 5 -25 25 0 20 5 25 25 25 20 0 25 -5 25 -25z m-50 -56 c0 -14 -7 -19 -25
-19 -18 0 -25 5 -25 19 0 11 8 21 18 24 24 5 32 -1 32 -24z m170 -49 c0 -16
-7 -20 -30 -20 -23 0 -30 4 -30 20 0 16 7 20 30 20 23 0 30 -4 30 -20z m-178
-186 l187 -6 -1 -50 0 -49 -261 6 c-144 3 -295 8 -334 11 -69 5 -73 7 -73 30
0 24 -1 24 -90 24 -81 0 -91 2 -88 18 2 9 12 20 23 24 20 7 266 4 637 -8z
m665 -30 c-3 -3 -12 -4 -19 -1 -8 3 -5 6 6 6 11 1 17 -2 13 -5z m401 -173 c3
-20 -1 -21 -87 -21 -82 0 -91 2 -91 18 0 10 2 21 4 23 2 2 42 3 88 2 76 -1 83
-3 86 -22z m-1262 -3 c-1 -22 3 -23 77 -26 74 -3 77 -4 77 -27 0 -14 5 -26 10
-26 6 -1 16 -2 23 -3 7 -1 13 -21 15 -53 l3 -53 -30 0 c-27 0 -31 -4 -31 -26
0 -24 -2 -25 -52 -22 -48 3 -53 5 -52 26 0 16 -5 22 -22 22 -17 0 -23 7 -26
28 -2 22 -7 26 -25 24 -19 -3 -23 1 -23 26 0 29 22 48 41 36 5 -3 9 6 9 20 0
21 -5 26 -25 26 -20 0 -25 5 -25 25 0 21 5 25 29 25 23 0 28 -4 27 -22z m1024
-373 l0 -25 -155 0 -155 0 0 25 0 25 155 0 155 0 0 -25z"/>
<path d="M1163 823 c-7 -2 -13 -13 -13 -24 0 -14 7 -19 25 -19 20 0 25 5 25
25 0 24 -11 29 -37 18z"/>
<path d="M1508 2873 c6 -2 18 -2 25 0 6 3 1 5 -13 5 -14 0 -19 -2 -12 -5z"/>
</g>
</svg>
