<?xml version="1.0" standalone="no"?>
<!DOCTYPE svg PUBLIC "-//W3C//DTD SVG 20010904//EN"
 "http://www.w3.org/TR/2001/REC-SVG-20010904/DTD/svg10.dtd">
<svg version="1.0" xmlns="http://www.w3.org/2000/svg"
 width="1024.000000pt" height="1024.000000pt" viewBox="0 0 1024.000000 1024.000000"
 preserveAspectRatio="xMidYMid meet">
<metadata>
Created by potrace 1.14, written by Peter Selinger 2001-2017
</metadata>
<g transform="translate(0.000000,1024.000000) scale(0.100000,-0.100000)"
fill="#000000" stroke="none">
<path d="M4845 10230 c-28 -3 -76 -5 -108 -5 -31 0 -57 -2 -57 -5 0 -3 -21 -6
-48 -6 -54 -1 -145 -11 -182 -19 -14 -3 -47 -7 -73 -10 -27 -3 -70 -10 -95
-16 -26 -6 -66 -12 -88 -14 -23 -1 -46 -5 -50 -8 -5 -3 -27 -8 -49 -11 -22 -4
-56 -11 -75 -16 -19 -5 -46 -11 -60 -14 -14 -3 -45 -10 -70 -17 -25 -6 -52
-12 -60 -14 -52 -13 -199 -55 -221 -64 -15 -5 -30 -7 -33 -4 -3 4 -6 0 -6 -7
0 -7 -3 -11 -6 -8 -3 4 -21 0 -40 -8 -19 -8 -34 -11 -34 -8 0 3 -10 0 -22 -8
-13 -8 -43 -20 -67 -27 -25 -7 -56 -18 -70 -24 -14 -6 -28 -11 -31 -12 -3 -1
-18 -7 -35 -14 -16 -7 -39 -15 -49 -17 -11 -2 -23 -9 -26 -15 -4 -6 -9 -10
-11 -8 -6 3 -82 -22 -95 -32 -6 -5 -14 -6 -17 -2 -4 3 -7 1 -7 -6 0 -7 -4 -10
-9 -7 -5 4 -11 1 -13 -4 -2 -6 -13 -12 -26 -13 -12 0 -22 -4 -22 -8 0 -6 -38
-24 -70 -34 -3 0 -57 -28 -120 -60 -63 -33 -121 -61 -127 -63 -7 -2 -13 -8
-13 -14 0 -6 -3 -9 -6 -5 -4 3 -23 -5 -43 -18 -19 -14 -41 -25 -48 -25 -7 0
-13 -4 -13 -8 0 -10 -50 -37 -62 -34 -5 1 -8 -2 -8 -8 0 -5 -7 -10 -15 -10 -8
0 -15 -4 -15 -9 0 -5 -10 -13 -22 -17 -13 -4 -38 -19 -57 -35 -19 -15 -38 -26
-43 -23 -4 3 -8 1 -8 -4 0 -5 -12 -15 -27 -23 -16 -8 -33 -18 -40 -24 -7 -5
-19 -16 -27 -22 -8 -7 -19 -13 -25 -13 -5 0 -11 -3 -13 -7 -5 -12 -75 -63 -86
-63 -6 0 -12 -4 -14 -8 -1 -4 -32 -30 -68 -57 -36 -27 -67 -52 -70 -55 -3 -3
-23 -18 -45 -35 -21 -16 -46 -36 -55 -45 -9 -8 -34 -30 -55 -48 -167 -140
-447 -420 -562 -561 -15 -19 -40 -47 -56 -63 -15 -16 -27 -31 -27 -33 0 -4
-18 -27 -55 -69 -5 -6 -21 -27 -35 -46 -25 -36 -26 -38 -60 -79 -11 -13 -20
-28 -20 -33 0 -5 -5 -6 -12 -2 -7 4 -8 3 -4 -4 4 -6 -2 -19 -14 -29 -11 -10
-20 -23 -20 -31 0 -7 -7 -15 -15 -18 -8 -4 -13 -10 -10 -14 2 -4 -6 -19 -19
-33 -13 -14 -21 -28 -19 -31 3 -3 -2 -8 -11 -12 -9 -3 -16 -11 -16 -16 0 -5
-10 -24 -22 -41 -13 -18 -28 -41 -34 -52 -6 -11 -34 -57 -62 -103 -29 -46 -52
-90 -52 -97 0 -8 -6 -18 -13 -22 -7 -4 -26 -34 -42 -67 -17 -32 -40 -77 -52
-100 -12 -22 -22 -47 -22 -53 -1 -7 -5 -13 -11 -13 -5 0 -10 -4 -10 -9 0 -5
-16 -45 -36 -88 -79 -171 -87 -189 -91 -207 -2 -11 -7 -24 -12 -30 -4 -6 -17
-36 -27 -66 -10 -30 -23 -58 -27 -61 -5 -3 -8 -8 -6 -10 1 -2 -1 -15 -5 -29
-5 -14 -9 -29 -11 -35 -2 -5 -10 -27 -19 -47 -9 -21 -13 -38 -10 -38 4 0 1 -7
-6 -15 -7 -8 -10 -15 -7 -15 3 0 0 -12 -8 -27 -8 -15 -12 -30 -9 -35 3 -4 0
-8 -7 -8 -7 0 -10 -3 -7 -6 5 -5 -8 -57 -29 -114 -7 -17 -13 -47 -15 -72 -1
-10 -5 -18 -8 -18 -3 0 -7 -8 -8 -17 -2 -22 -10 -58 -12 -58 -2 0 -10 -36 -17
-77 -3 -21 -10 -38 -14 -38 -5 0 -8 -3 -7 -7 2 -6 -11 -91 -17 -113 -5 -21
-15 -71 -19 -100 -3 -19 -8 -45 -10 -57 -6 -29 -19 -113 -22 -143 -1 -14 -3
-25 -4 -25 -1 0 -3 -16 -5 -35 -2 -19 -6 -51 -9 -70 -18 -111 -28 -320 -28
-595 0 -285 5 -475 12 -475 3 0 6 -19 8 -42 1 -39 4 -63 17 -151 2 -15 7 -32
10 -37 3 -6 1 -10 -5 -10 -7 0 -8 -5 -3 -12 4 -7 9 -22 10 -33 2 -11 5 -36 8
-55 3 -19 8 -48 10 -65 2 -16 4 -30 5 -30 2 0 6 -18 15 -70 3 -22 8 -49 10
-60 2 -11 6 -31 10 -45 4 -14 8 -32 9 -40 1 -9 6 -21 10 -28 4 -7 6 -16 3 -18
-3 -3 3 -32 13 -64 10 -32 15 -61 12 -64 -3 -3 -1 -6 4 -6 5 0 10 -10 11 -23
3 -32 8 -51 15 -62 7 -12 23 -87 20 -97 -1 -5 3 -8 10 -8 6 0 9 -3 6 -6 -4 -3
7 -41 22 -85 16 -43 26 -79 23 -79 -3 0 -1 -6 4 -12 6 -7 16 -31 23 -53 7 -22
16 -44 20 -50 5 -5 9 -14 10 -20 5 -23 12 -42 32 -90 11 -27 23 -62 25 -77 3
-16 9 -28 14 -28 5 0 9 -9 9 -20 0 -11 5 -20 12 -20 6 0 9 -3 5 -6 -3 -4 5
-28 18 -54 13 -26 21 -50 18 -54 -4 -3 -2 -6 4 -6 9 0 27 -42 20 -46 -1 -1 6
-10 15 -20 9 -11 20 -31 23 -46 4 -16 10 -28 14 -28 4 0 15 -22 26 -50 11 -27
22 -50 25 -50 4 0 14 -19 25 -42 10 -24 21 -45 24 -48 3 -3 14 -21 25 -40 40
-76 59 -107 97 -165 22 -33 42 -68 45 -77 4 -10 10 -18 15 -18 5 0 9 -5 9 -11
0 -6 14 -29 31 -50 17 -21 27 -39 23 -39 -4 0 5 -11 20 -25 15 -14 24 -25 20
-25 -7 0 45 -71 60 -82 7 -5 7 -8 1 -8 -6 0 -6 -3 0 -8 6 -4 33 -36 60 -72 70
-91 77 -100 103 -127 12 -13 22 -26 22 -29 0 -3 6 -11 13 -18 6 -7 32 -37 57
-66 132 -157 367 -392 540 -540 86 -74 125 -107 144 -120 12 -8 35 -27 51 -42
17 -15 36 -28 43 -28 6 0 12 -4 12 -8 0 -4 32 -30 71 -57 38 -28 97 -69 129
-92 33 -24 64 -43 70 -43 5 0 10 -4 10 -10 0 -5 7 -10 15 -10 8 0 15 -4 15
-10 0 -5 7 -10 15 -10 8 0 15 -5 15 -11 0 -5 4 -8 9 -5 5 4 11 3 13 -1 4 -11
86 -63 98 -63 5 0 10 -4 10 -10 0 -5 7 -10 15 -10 8 0 15 -5 15 -11 0 -5 4 -8
9 -4 5 3 15 -1 23 -8 7 -7 32 -22 55 -34 58 -30 87 -47 93 -54 3 -3 21 -11 40
-19 19 -7 42 -19 51 -27 9 -7 19 -10 22 -6 4 3 7 1 7 -5 0 -7 4 -12 9 -12 6 0
63 -25 128 -56 65 -31 125 -57 133 -59 8 -2 34 -13 57 -24 23 -12 47 -21 53
-21 5 0 18 -4 28 -9 44 -23 175 -70 183 -65 5 3 9 1 9 -4 0 -6 7 -13 16 -16 9
-4 13 -2 8 5 -3 6 5 3 20 -6 14 -10 26 -13 26 -9 0 5 4 3 8 -3 5 -7 20 -14 35
-15 15 -1 27 -5 27 -8 0 -6 122 -35 129 -31 2 2 7 -2 10 -7 3 -6 20 -12 36
-15 17 -3 46 -11 65 -17 30 -9 62 -16 107 -24 7 -1 16 -5 19 -9 4 -4 20 -7 36
-7 16 0 37 -4 47 -10 10 -5 35 -10 55 -12 20 -1 36 -5 36 -8 0 -3 15 -7 33 -9
53 -5 82 -9 82 -11 0 -3 41 -10 82 -12 24 -2 43 -7 43 -11 0 -5 3 -6 8 -4 4 3
34 1 67 -4 77 -12 141 -19 196 -24 24 -2 44 -4 44 -5 0 -5 245 -12 450 -13
264 0 415 5 415 13 0 3 26 5 58 6 52 0 94 4 207 19 22 3 49 7 60 9 11 3 43 8
70 11 54 7 76 11 115 20 14 3 42 8 64 10 21 2 44 10 52 16 11 9 14 8 14 -1 0
-10 3 -10 15 0 8 6 18 10 22 7 4 -3 19 0 33 6 14 5 32 11 40 12 29 5 111 25
222 56 62 17 118 32 123 33 6 1 24 7 40 13 75 28 75 28 110 37 17 4 280 104
325 123 8 3 18 5 23 5 4 -1 7 2 7 8 0 6 3 9 8 8 4 -1 20 4 35 10 16 7 33 12
38 12 5 0 9 5 9 12 0 6 3 9 6 6 3 -3 41 12 85 33 44 21 84 39 89 39 6 0 10 4
10 8 0 7 57 33 63 29 1 -1 16 8 34 21 17 12 35 22 40 22 4 0 25 11 46 25 20
14 37 22 37 18 0 -4 6 -1 13 7 7 9 27 22 45 29 17 7 32 17 32 22 0 5 5 9 12 9
7 0 28 11 47 23 20 13 59 38 86 55 28 17 55 36 62 42 7 5 17 10 23 10 5 0 10
5 10 10 0 6 6 10 14 10 8 0 21 6 28 13 7 7 56 44 108 81 52 38 97 72 98 77 2
5 10 9 18 9 8 0 14 5 14 10 0 6 5 10 11 10 7 0 21 10 33 23 12 12 47 42 79 66
32 24 62 51 67 60 5 9 10 13 10 8 0 -7 33 21 113 96 22 20 44 37 49 37 5 0 6
4 3 10 -3 5 -1 10 4 10 6 0 68 56 137 125 69 69 123 125 121 125 -3 0 17 23
44 50 27 28 49 52 49 54 0 4 44 54 90 101 11 12 20 24 20 28 0 5 11 18 25 31
14 13 25 26 25 29 0 3 14 21 31 40 17 19 31 39 31 44 1 4 9 14 19 21 11 7 19
20 19 28 0 8 4 14 10 14 5 0 16 13 25 29 8 16 20 35 27 43 24 24 88 118 88
128 0 6 4 10 9 10 5 0 13 9 16 20 3 11 12 26 18 32 22 24 67 98 60 98 -5 0 -3
4 3 8 13 8 51 68 60 95 4 9 9 17 13 17 4 0 13 16 21 35 8 19 18 35 24 35 5 0
6 3 3 6 -4 4 2 19 13 34 11 16 20 33 20 39 0 6 5 11 11 11 5 0 7 5 4 10 -3 5
-1 10 4 10 6 0 10 3 9 8 -3 12 25 62 34 62 5 0 6 5 3 10 -3 6 3 23 14 39 11
15 18 30 15 33 -2 3 2 11 11 18 8 7 15 18 15 25 0 6 11 33 24 58 14 25 22 48
19 51 -4 3 -1 6 6 6 7 0 10 4 6 9 -3 5 -1 12 5 16 6 4 8 11 5 16 -4 5 -2 9 2
9 10 0 38 70 35 84 -2 5 1 12 6 15 9 6 63 147 63 166 0 6 8 18 16 28 9 9 13
17 10 17 -3 0 12 51 34 112 22 62 40 123 41 136 2 12 6 22 11 22 5 0 7 6 4 13
-2 6 2 27 10 44 7 18 13 34 12 35 -1 2 4 23 11 48 7 25 14 56 17 70 8 40 11
55 13 55 1 0 3 7 5 15 2 8 6 29 10 45 4 17 8 39 10 50 2 11 4 20 5 20 2 0 14
62 25 125 2 14 6 39 9 56 7 36 16 99 20 134 2 14 7 45 11 69 4 24 9 60 10 80
2 20 4 36 5 36 9 0 23 328 24 540 0 230 -13 550 -24 550 -1 0 -3 18 -4 40 -6
80 -19 170 -25 180 -4 6 -6 27 -6 47 0 21 -3 38 -6 38 -3 0 -5 10 -4 23 1 12
0 27 -4 32 -3 6 -6 19 -7 30 -1 11 -7 47 -13 80 -7 33 -14 71 -17 85 -3 14 -8
34 -11 45 -9 25 -8 23 -17 70 -4 22 -9 45 -11 50 -1 6 -3 13 -4 17 -1 4 -7 22
-12 40 -10 31 -13 45 -23 86 -3 9 -11 38 -19 65 -8 26 -13 47 -11 47 3 0 -1
10 -8 23 -7 12 -14 33 -16 47 -2 14 -7 27 -13 28 -5 2 -9 12 -9 22 0 9 -7 35
-16 56 -9 21 -18 50 -21 64 -2 14 -8 29 -14 35 -5 5 -9 17 -9 27 0 10 -4 18
-9 18 -5 0 -11 12 -14 28 -3 15 -11 41 -17 57 -6 17 -10 30 -9 30 2 0 -4 14
-13 30 -9 17 -24 48 -33 70 -10 22 -31 69 -48 105 -17 36 -32 72 -33 80 -2 8
-8 16 -14 18 -5 2 -8 8 -4 13 3 5 0 9 -6 9 -6 0 -9 4 -5 9 3 5 1 12 -4 16 -11
6 -65 116 -63 128 1 4 -2 7 -7 7 -5 0 -14 12 -20 28 -10 27 -41 83 -52 92 -3
3 -13 22 -22 43 -10 20 -23 37 -29 37 -6 0 -8 3 -5 6 3 4 -3 18 -13 32 -11 13
-20 30 -20 37 0 6 -9 20 -20 30 -11 10 -20 23 -20 30 0 6 -8 20 -17 31 -10 10
-24 31 -32 47 -8 15 -18 27 -23 27 -4 0 -8 7 -8 15 0 8 -3 15 -7 15 -5 1 -24
25 -43 55 -19 30 -38 55 -42 55 -5 0 -8 6 -8 13 0 6 -14 27 -31 45 -16 17 -27
32 -24 32 3 0 -4 11 -17 25 -35 37 -48 53 -48 61 0 4 -10 16 -22 28 -13 12
-36 39 -52 60 -16 21 -41 50 -55 66 -14 15 -48 54 -76 85 -55 64 -333 345
-341 345 -2 0 -20 15 -38 33 -18 17 -56 52 -86 77 -94 81 -102 87 -195 160
-39 30 -71 58 -73 62 -2 5 -10 8 -18 8 -8 0 -14 5 -14 10 0 6 -7 10 -15 10 -8
0 -15 3 -15 8 0 4 -30 27 -68 52 -37 24 -69 47 -72 50 -3 3 -23 17 -45 31 -22
14 -67 43 -100 65 -33 21 -62 39 -65 39 -3 0 -23 12 -45 26 -22 14 -60 37 -85
50 -25 13 -47 26 -50 29 -3 3 -27 16 -55 30 -27 14 -51 28 -53 33 -2 4 -10 7
-19 7 -8 0 -27 9 -43 20 -15 11 -30 17 -34 13 -3 -3 -6 -1 -6 5 0 7 -4 12 -9
12 -6 0 -49 19 -98 42 -48 23 -90 42 -93 43 -9 3 -65 25 -85 34 -36 16 -60 24
-67 23 -5 -1 -8 3 -8 9 0 5 -4 7 -10 4 -5 -3 -10 -1 -10 4 0 6 -3 10 -7 9 -8
-3 -176 55 -230 78 -17 8 -36 14 -41 14 -6 0 -23 5 -39 12 -32 13 -52 19 -70
20 -7 1 -13 4 -13 8 0 3 -8 7 -17 8 -24 2 -45 8 -63 15 -8 4 -25 8 -37 10 -12
2 -25 6 -29 9 -3 4 -12 4 -19 2 -7 -3 -16 0 -20 5 -3 6 -11 9 -16 6 -5 -4 -15
-3 -21 2 -7 4 -15 8 -18 8 -5 1 -117 27 -132 31 -5 1 -9 2 -10 4 -2 1 -12 3
-23 5 -11 2 -36 7 -55 11 -19 4 -46 9 -60 11 -56 8 -75 12 -75 13 0 1 -13 4
-30 6 -33 5 -152 23 -200 30 -26 4 -82 11 -150 18 -11 1 -25 5 -32 9 -6 4 -14
3 -18 -3 -4 -6 -11 -7 -17 -4 -6 4 -43 9 -82 11 -117 6 -587 9 -641 3z"/>
</g>
</svg>
